<svg viewBox="0 0 512 512" class="magic-hat">
    <style>
        @keyframes magic-hat-stick {
            0% { transform: rotate(-5deg); }
            50% { transform: rotate(0deg); }
            100% { transform: rotate(0deg); }
        }
        @keyframes magic-hat-p6 {
            0% { transform: scale(0, 0); }
            20% { transform: scale(0, 0); }
            100% { transform: scale(1, 1); }
        }
        @keyframes magic-hat-p5 {
            0% { transform: scale(0, 0); }
            35% { transform: scale(0, 0); }
            100% { transform: scale(1, 1); }
        }
        @keyframes magic-hat-p4 {
            0% { transform: scale(0, 0); }
            50% { transform: scale(0, 0); }
            100% { transform: scale(1, 1); }
        }

        svg.magic-hat path:nth-child(3) {
            transform: rotate(-5deg);
            animation: magic-hat-stick 1s infinite alternate;
        }
        svg.magic-hat path:nth-child(4) {
            transform: scale(0, 0);
            transform-origin: 250px 92px;
            animation: magic-hat-p4 1s infinite alternate;
        }
        svg.magic-hat path:nth-child(5) {
            transform: scale(0, 0);
            transform-origin: 300px 102px;
            animation: magic-hat-p5 1s infinite alternate;
        }
        svg.magic-hat path:nth-child(6) {
            transform: scale(0, 0);
            transform-origin: 300px 140px;
            animation: magic-hat-p6 1s infinite alternate;
        }
    </style>
    <path d="m424.576 182.003h-275.146c-31.365 0-60.854 12.214-83.033 34.393-5.858 5.858-5.858 15.355 0 21.213 5.856 5.858 15.354 5.858 21.213 0 16.513-16.513 38.468-25.607 61.82-25.607h4.866l5.854 35.127c13.564 81.383 2.142 165.754-36.563 243.164-4.977 9.953 2.267 21.708 13.416 21.708h300c11.129 0 18.402-11.738 13.416-21.708-38.704-77.408-50.128-161.779-36.563-243.165l5.854-35.127h4.866c23.353 0 45.308 9.094 61.82 25.607 5.857 5.858 15.355 5.858 21.213 0s5.858-15.355 0-21.213c-22.178-22.177-51.667-34.392-83.033-34.392zm-35.28 30-5 30h-194.586l-5-30zm24.183 270h-252.951c28.429-65.804 39.955-138.025 33.095-210h186.761c-6.857 71.933 4.649 144.157 33.095 210z"/>

    <path d="m8.295 28.42 240 120c7.423 3.712 16.426.687 20.124-6.708 3.705-7.41.702-16.42-6.708-20.125l-240-120c-7.41-3.705-16.42-.701-20.124 6.708-3.705 7.41-.702 16.42 6.708 20.125z" />

    <path d="m256.003 92.003c8.284 0 15-6.716 15-15v-30c0-8.284-6.716-15-15-15s-15 6.716-15 15v30c0 8.285 6.716 15 15 15z" />

    <path d="m311.61 102.61 30-30c5.858-5.858 5.858-15.355 0-21.213-5.857-5.858-15.355-5.858-21.213 0l-30 30c-5.858 5.858-5.858 15.355 0 21.213 5.857 5.858 15.355 5.858 21.213 0z" />

    <path d="m316.003 122.003c-8.284 0-15 6.716-15 15s6.716 15 15 15h30c8.284 0 15-6.716 15-15s-6.716-15-15-15z" />

</svg>
